<svg version="1.1" preserveAspectRatio="none" xmlns="http://www.w3.org/2000/svg" width="500" height="500" viewBox="0 0 500 500"><rect width="100%" height="100%" fill="#F5F5F5" fill-opacity="1"/><svg viewBox="86.6717 157.9999 486.7563 184" width="333" height="125.87818586015219" x="83.5px" y="187.0609px" xmlns="http://www.w3.org/2000/svg" xmlns:xlink="http://www.w3.org/1999/xlink" preserveAspectRatio="none"><defs></defs><style>.companyName {fill:#08376B;fill-opacity:1;}.icon1 {fill:#35C0ED;fill-opacity:1;}.icon2 {fill:#9AEBA6;fill-opacity:1;}.icon3 {fill:#2F90B0;fill-opacity:1;}.icon3-str {stroke:#2F90B0;stroke-opacity:1;}.shapeStroke-str {stroke:#08376B;stroke-opacity:1;}.text {fill:#08376B;fill-opacity:1;}</style><g opacity="1" transform="rotate(0 86.6717 172.9999)">
<svg width="118.1064" height="154" x="86.6717" y="172.9999" version="1.1" preserveAspectRatio="none" viewBox="34 13.884100914001465 132 172.11590576171875">
  <g transform="matrix(1 0 0 1 0 0)" ><g><path d="M95.1 186H79.7C53.6 186 34 167.4 34 142.8v-34.6c0-4.5 3.4-7.9 7.8-7.9h91.1c4.3 0 7.8 3.6 7.8 7.9v34.6c.1 24.6-19.6 43.2-45.6 43.2zm-53.3-78.8c-.7 0-1 .3-1 1v34.6c0 20.7 16.7 36.3 38.9 36.3H95c22.2 0 38.9-15.6 38.9-36.3v-34.6c0-.5-.5-1-1-1H41.8z" data-color="1" class="icon1"></path><path d="M142.8 162.4h-10v-6.9h10c8.9 0 16.4-7.8 16.4-17.1s-7.5-17.1-16.4-17.1h-7.2v-6.9h7.2c12.6 0 23.2 11 23.2 24s-10.6 24-23.2 24z" data-color="1" class="icon1"></path><path d="M95.1 87.7c-.9 0-1.8-.4-2.5-1.1-8.4-8.9-3.9-20.2 0-30.3 4.8-12.1 6.2-17.9-.4-22-1.6-1-2.1-3.1-1.1-4.7s3.1-2.1 4.7-1.1C108 36.1 103 48.7 99 58.9c-4.1 10.5-6.5 17.7-1.4 23 1.3 1.4 1.3 3.5-.1 4.8-.8.7-1.6 1-2.4 1z" data-color="1" class="icon1"></path><path d="M75.3 73.6c-.9 0-1.8-.4-2.5-1.1-8.4-8.9-3.9-20.2 0-30.3 4.8-12.1 6.2-17.9-.4-22-1.6-1-2.1-3.1-1.1-4.7s3.1-2.1 4.7-1.1c12.1 7.5 7.1 20.2 3.1 30.3-4.1 10.5-6.5 17.7-1.4 23 1.3 1.4 1.3 3.5-.1 4.8-.6.8-1.5 1.1-2.3 1.1z" data-color="1" class="icon1"></path></g></g>
</svg>
</g><g opacity="1" transform="rotate(0 268.7781 172.9999)">
<svg width="304.6499" height="120" x="268.7781" y="172.9999" version="1.1" preserveAspectRatio="none" viewBox="2 -28.48 180.16000000000003 70.96000000000001">
  <g transform="matrix(1 0 0 1 0 0)" class="companyName"><path id="id-D6z1nYkh11" d="M2-14L2-14Q2-11.76 2.86-9.22Q3.72-6.68 5.56-4.52Q7.40-2.36 10.24-0.94Q13.08 0.48 17.04 0.48L17.04 0.48Q19.72 0.48 21.90-0.18Q24.08-0.84 25.82-1.96Q27.56-3.08 28.84-4.54Q30.12-6 30.94-7.62Q31.76-9.24 32.18-10.88Q32.60-12.52 32.60-14L32.60-14Q32.60-16.24 31.68-18.78Q30.76-21.32 28.84-23.48Q26.92-25.64 23.98-27.06Q21.04-28.48 17.04-28.48L17.04-28.48Q13.08-28.48 10.24-27.08Q7.40-25.68 5.56-23.54Q3.72-21.40 2.86-18.84Q2-16.28 2-14ZM5.92-14L5.92-14Q5.92-16.80 6.78-19.14Q7.64-21.48 9.14-23.16Q10.64-24.84 12.68-25.78Q14.72-26.72 17.12-26.72L17.12-26.72Q19.48-26.72 21.58-25.78Q23.68-24.84 25.26-23.16Q26.84-21.48 27.76-19.14Q28.68-16.80 28.68-14L28.68-14Q28.68-11.20 27.76-8.86Q26.84-6.52 25.26-4.84Q23.68-3.16 21.58-2.22Q19.48-1.28 17.12-1.28L17.12-1.28Q14.72-1.28 12.68-2.22Q10.64-3.16 9.14-4.84Q7.64-6.52 6.78-8.86Q5.92-11.20 5.92-14Z M48.48-28L39.40-28L39.40 0L43.04 0L43.04-12.36L44.80-12.36Q45.92-12.36 46.66-12.16Q47.40-11.96 48-11.48Q48.60-11 49.12-10.24Q49.64-9.48 50.36-8.36L50.36-8.36L53.52-3.68Q54.12-2.76 54.70-2Q55.28-1.24 55.96-0.70Q56.64-0.16 57.50 0.16Q58.36 0.48 59.56 0.48L59.56 0.48Q60.44 0.48 61 0.40Q61.56 0.32 62.12 0L62.12 0L62.12-1.48Q61.92-1.44 61.72-1.42Q61.52-1.40 61.32-1.40L61.32-1.40Q60.48-1.40 59.84-1.64Q59.20-1.88 58.64-2.34Q58.08-2.80 57.56-3.46Q57.04-4.12 56.48-4.96L56.48-4.96Q54.80-7.40 53.88-8.86Q52.96-10.32 52.42-11.12Q51.88-11.92 51.54-12.28Q51.20-12.64 50.72-12.88L50.72-12.88L50.32-13.08L50.32-13.24Q52.24-13.36 53.62-14.08Q55-14.80 55.88-15.88Q56.76-16.96 57.16-18.22Q57.56-19.48 57.56-20.68L57.56-20.68Q57.56-21.76 57.14-23.04Q56.72-24.32 55.70-25.42Q54.68-26.52 52.92-27.26Q51.16-28 48.48-28L48.48-28ZM43.04-14.16L43.04-26.24L47.08-26.24Q48.60-26.24 49.82-25.80Q51.04-25.36 51.92-24.58Q52.80-23.80 53.26-22.72Q53.72-21.64 53.72-20.36L53.72-20.36Q53.72-19.28 53.30-18.18Q52.88-17.08 52.04-16.18Q51.20-15.28 49.98-14.72Q48.76-14.16 47.16-14.16L47.16-14.16L43.04-14.16Z M69.88-8.24L83.68-8.24L87.52 0L91.40 0L78.36-28L76.36-28L64.52 0L66.36 0L69.88-8.24ZM76.56-23.52L82.84-10.04L70.64-10.04L76.40-23.52L76.56-23.52Z M121.80-28L119.96-28L119.96-6.60L119.80-6.60L97.60-28.48L97.40-28.48L97.40 0L99.24 0L99.24-21.40L99.40-21.40L121.60 0.48L121.80 0.48L121.80-28Z M156.88 0L156.88-12.48L148.96-12.48L148.96-10.84L153.44-10.84L153.44-3.60Q151.64-2.44 149.76-1.88Q147.88-1.32 145.48-1.32L145.48-1.32Q142.32-1.32 139.96-2.28Q137.60-3.24 136.04-4.94Q134.48-6.64 133.70-8.98Q132.92-11.32 132.92-14.12L132.92-14.12Q132.92-16.88 133.66-19.20Q134.40-21.52 135.88-23.20Q137.36-24.88 139.50-25.80Q141.64-26.72 144.48-26.72L144.48-26.72Q146.36-26.72 148-26.32Q149.64-25.92 150.92-25.28Q152.20-24.64 153.02-23.82Q153.84-23 154.08-22.16L154.08-22.16L156.96-22.16Q156.60-23.04 155.74-24.14Q154.88-25.24 153.40-26.20Q151.92-27.16 149.74-27.82Q147.56-28.48 144.60-28.48L144.60-28.48Q141.20-28.48 138.34-27.52Q135.48-26.56 133.40-24.76Q131.32-22.96 130.16-20.34Q129-17.72 129-14.40L129-14.40Q129-11.56 129.90-8.90Q130.80-6.24 132.66-4.14Q134.52-2.04 137.40-0.78Q140.28 0.48 144.28 0.48L144.28 0.48Q147.28 0.48 149.60-0.18Q151.92-0.84 153.44-1.64L153.44-1.64L153.44 0L156.88 0Z M182.16-28L164.08-28L164.08 0L182.16 0L182.16-2.20L167.72-2.20L167.72-13.92L180.12-13.92L180.12-15.76L167.72-15.76L167.72-25.80L182.16-25.80L182.16-28Z M2.00 14L2.00 42L12.04 42Q14.72 42 16.56 41.30Q18.40 40.60 19.52 39.48Q20.64 38.36 21.14 36.94Q21.64 35.52 21.64 34.08L21.64 34.08Q21.64 31.80 20.66 30.44Q19.68 29.08 18.32 28.36Q16.96 27.64 15.52 27.40Q14.08 27.16 13.20 27.12L13.20 27.12L13.20 26.96Q14.60 26.96 15.84 26.42Q17.08 25.88 18.02 25.02Q18.96 24.16 19.52 23.02Q20.08 21.88 20.08 20.60L20.08 20.60Q20.08 19.48 19.60 18.32Q19.12 17.16 18.14 16.20Q17.16 15.24 15.62 14.62Q14.08 14 12 14L12 14L2.00 14ZM11.44 40.24L5.64 40.24L5.64 28L10.04 28Q12 28 13.44 28.52Q14.88 29.04 15.82 29.92Q16.76 30.80 17.22 31.96Q17.68 33.12 17.68 34.40L17.68 34.40Q17.68 35.80 17.18 36.88Q16.68 37.96 15.84 38.72Q15 39.48 13.86 39.86Q12.72 40.24 11.44 40.24L11.44 40.24ZM10.44 26.24L5.64 26.24L5.64 15.76L10.52 15.76Q12.08 15.76 13.18 16.20Q14.28 16.64 14.98 17.36Q15.68 18.08 16 19Q16.32 19.92 16.32 20.84L16.32 20.84Q16.32 22 15.86 23Q15.40 24 14.58 24.72Q13.76 25.44 12.70 25.84Q11.64 26.24 10.44 26.24L10.44 26.24Z M37.52 14L28.44 14L28.44 42L32.08 42L32.08 29.64L33.84 29.64Q34.96 29.64 35.70 29.84Q36.44 30.04 37.04 30.52Q37.64 31 38.16 31.76Q38.68 32.52 39.40 33.64L39.40 33.64L42.56 38.32Q43.16 39.24 43.74 40Q44.32 40.76 45 41.30Q45.68 41.84 46.54 42.16Q47.40 42.48 48.60 42.48L48.60 42.48Q49.48 42.48 50.04 42.40Q50.60 42.32 51.16 42L51.16 42L51.16 40.52Q50.96 40.56 50.76 40.58Q50.56 40.60 50.36 40.60L50.36 40.60Q49.52 40.60 48.88 40.36Q48.24 40.12 47.68 39.66Q47.12 39.20 46.60 38.54Q46.08 37.88 45.52 37.04L45.52 37.04Q43.84 34.60 42.92 33.14Q42 31.68 41.46 30.88Q40.92 30.08 40.58 29.72Q40.24 29.36 39.76 29.12L39.76 29.12L39.36 28.92L39.36 28.76Q41.28 28.64 42.66 27.92Q44.04 27.20 44.92 26.12Q45.80 25.04 46.20 23.78Q46.60 22.52 46.60 21.32L46.60 21.32Q46.60 20.24 46.18 18.96Q45.76 17.68 44.74 16.58Q43.72 15.48 41.96 14.74Q40.20 14 37.52 14L37.52 14ZM32.08 27.84L32.08 15.76L36.12 15.76Q37.64 15.76 38.86 16.20Q40.08 16.64 40.96 17.42Q41.84 18.20 42.30 19.28Q42.76 20.36 42.76 21.64L42.76 21.64Q42.76 22.72 42.34 23.82Q41.92 24.92 41.08 25.82Q40.24 26.72 39.02 27.28Q37.80 27.84 36.20 27.84L36.20 27.84L32.08 27.84Z M54.36 28L54.36 28Q54.36 30.24 55.22 32.78Q56.08 35.32 57.92 37.48Q59.76 39.64 62.60 41.06Q65.44 42.48 69.40 42.48L69.40 42.48Q72.08 42.48 74.26 41.82Q76.44 41.16 78.18 40.04Q79.92 38.92 81.20 37.46Q82.48 36 83.30 34.38Q84.12 32.76 84.54 31.12Q84.96 29.48 84.96 28L84.96 28Q84.96 25.76 84.04 23.22Q83.12 20.68 81.20 18.52Q79.28 16.36 76.34 14.94Q73.40 13.52 69.40 13.52L69.40 13.52Q65.44 13.52 62.60 14.92Q59.76 16.32 57.92 18.46Q56.08 20.60 55.22 23.16Q54.36 25.72 54.36 28ZM58.28 28L58.28 28Q58.28 25.20 59.14 22.86Q60 20.52 61.50 18.84Q63 17.16 65.04 16.22Q67.08 15.28 69.48 15.28L69.48 15.28Q71.84 15.28 73.94 16.22Q76.04 17.16 77.62 18.84Q79.20 20.52 80.12 22.86Q81.04 25.20 81.04 28L81.04 28Q81.04 30.80 80.12 33.14Q79.20 35.48 77.62 37.16Q76.04 38.84 73.94 39.78Q71.84 40.72 69.48 40.72L69.48 40.72Q67.08 40.72 65.04 39.78Q63 38.84 61.50 37.16Q60 35.48 59.14 33.14Q58.28 30.80 58.28 28Z M91.84 14L88.16 14L98.08 42L100.48 42L108.12 20.12L108.32 20.12L115.72 42L118.08 42L128 14L126.16 14L117.88 37.36L117.72 37.36L109.92 14L108.20 14L100.24 37.24L100.08 37.24L91.84 14Z M158.40 14L156.56 14L156.56 35.40L156.40 35.40L134.20 13.52L134 13.52L134 42L135.84 42L135.84 20.60L136 20.60L158.20 42.48L158.40 42.48L158.40 14Z"/></g>
</svg>
</g><g opacity="1" transform="rotate(0 233.7781 157.9999)">
<svg width="3" height="184" x="233.7781" y="157.9999" version="1.1" preserveAspectRatio="none" viewBox="0 0 3 184">
  <rect x="0" y="0" width="3" height="184" class="companyName shapeStroke-str" style="stroke-width:0;" rx="0px" ry="0px" />
</svg>
</g><g opacity="1" transform="rotate(0 268.7781 308.9999)">
<svg width="171.1386" height="18" x="268.7781" y="308.9999" version="1.1" preserveAspectRatio="none" viewBox="2.08 -28.24 270.84000000000003 28.48">
  <g transform="matrix(1 0 0 1 0 0)" class="text"><path id="id-D-YM9nyY410" d="M16.72 0.24Q12.56 0.24 9.22-1.60Q5.88-3.44 3.98-6.70Q2.08-9.96 2.08-14L2.08-14Q2.08-18.04 3.98-21.30Q5.88-24.56 9.24-26.40Q12.60-28.24 16.76-28.24L16.76-28.24Q19.88-28.24 22.52-27.20Q25.16-26.16 27-24.16L27-24.16L25.12-22.28Q21.84-25.60 16.84-25.60L16.84-25.60Q13.52-25.60 10.80-24.08Q8.08-22.56 6.54-19.92Q5-17.28 5-14L5-14Q5-10.72 6.54-8.08Q8.08-5.44 10.80-3.92Q13.52-2.40 16.84-2.40L16.84-2.40Q21.88-2.40 25.12-5.76L25.12-5.76L27-3.88Q25.16-1.88 22.50-0.82Q19.84 0.24 16.72 0.24L16.72 0.24Z M46.16 0.24Q42 0.24 38.62-1.62Q35.24-3.48 33.34-6.72Q31.44-9.96 31.44-14L31.44-14Q31.44-18.04 33.34-21.28Q35.24-24.52 38.62-26.38Q42-28.24 46.16-28.24L46.16-28.24Q50.32-28.24 53.66-26.40Q57-24.56 58.92-21.30Q60.84-18.04 60.84-14L60.84-14Q60.84-9.96 58.92-6.70Q57-3.44 53.66-1.60Q50.32 0.24 46.16 0.24L46.16 0.24ZM46.16-2.40Q49.48-2.40 52.16-3.90Q54.84-5.40 56.36-8.06Q57.88-10.72 57.88-14L57.88-14Q57.88-17.28 56.36-19.94Q54.84-22.60 52.16-24.10Q49.48-25.60 46.16-25.60L46.16-25.60Q42.84-25.60 40.14-24.10Q37.44-22.60 35.90-19.94Q34.36-17.28 34.36-14L34.36-14Q34.36-10.72 35.90-8.06Q37.44-5.40 40.14-3.90Q42.84-2.40 46.16-2.40L46.16-2.40Z M87.88-25.44L71.64-25.44L71.64-14.44L86.12-14.44L86.12-11.88L71.64-11.88L71.64 0L68.68 0L68.68-28L87.88-28L87.88-25.44Z M114.40-25.44L98.16-25.44L98.16-14.44L112.64-14.44L112.64-11.88L98.16-11.88L98.16 0L95.20 0L95.20-28L114.40-28L114.40-25.44Z M124.68-2.56L141.52-2.56L141.52 0L121.72 0L121.72-28L140.92-28L140.92-25.44L124.68-25.44L124.68-15.48L139.16-15.48L139.16-12.96L124.68-12.96L124.68-2.56Z M152.64-2.56L169.48-2.56L169.48 0L149.68 0L149.68-28L168.88-28L168.88-25.44L152.64-25.44L152.64-15.48L167.12-15.48L167.12-12.96L152.64-12.96L152.64-2.56Z M206.96-14.44Q209.72-13.84 211.22-12.06Q212.72-10.28 212.72-7.48L212.72-7.48Q212.72-3.88 210.06-1.94Q207.40 0 202.20 0L202.20 0L189.32 0L189.32-28L201.40-28Q206.08-28 208.66-26.12Q211.24-24.24 211.24-20.80L211.24-20.80Q211.24-18.48 210.10-16.86Q208.96-15.24 206.96-14.44L206.96-14.44ZM201.20-25.56L192.28-25.56L192.28-15.40L201.20-15.40Q204.60-15.40 206.44-16.70Q208.28-18 208.28-20.48L208.28-20.48Q208.28-22.96 206.44-24.26Q204.60-25.56 201.20-25.56L201.20-25.56ZM202.16-2.44Q205.92-2.44 207.84-3.72Q209.76-5 209.76-7.72L209.76-7.72Q209.76-12.96 202.16-12.96L202.16-12.96L192.28-12.96L192.28-2.44L202.16-2.44Z M241.60 0L238.24-7.48L222.64-7.48L219.28 0L216.20 0L229.00-28L231.92-28L244.72 0L241.60 0ZM223.72-9.88L237.16-9.88L230.44-24.92L223.72-9.88Z M272.92 0L269.68 0L263.28-9Q262.20-8.88 261.04-8.88L261.04-8.88L253.52-8.88L253.52 0L250.56 0L250.56-28L261.04-28Q266.40-28 269.44-25.44Q272.48-22.88 272.48-18.40L272.48-18.40Q272.48-15.12 270.82-12.86Q269.16-10.60 266.08-9.60L266.08-9.60L272.92 0ZM260.96-11.40Q265.12-11.40 267.32-13.24Q269.52-15.08 269.52-18.40L269.52-18.40Q269.52-21.80 267.32-23.62Q265.12-25.44 260.96-25.44L260.96-25.44L253.52-25.44L253.52-11.40L260.96-11.40Z"/></g>
</svg>
</g></svg></svg>